<svg xmlns="http://www.w3.org/2000/svg" height="281" viewBox="0 0 522 281" width="522" xmlns:xlink="http://www.w3.org/1999/xlink">
<defs>
	<linearGradient id="l" x1="62.8" xlink:href="#a" gradientUnits="userSpaceOnUse" x2="313" gradientTransform="scale(1.53 .65)" y1="340" y2="191"/>
	<linearGradient id="a">
		<stop stop-color="#fff" stop-opacity=".5" offset="0"/>
		<stop stop-color="#fff" stop-opacity="0" offset="1"/>
	</linearGradient>
	<linearGradient id="b">
		<stop stop-color="#fff" stop-opacity="0" offset="0"/>
		<stop stop-color="#ffa617" stop-opacity=".7" offset="1"/>
	</linearGradient>
	<linearGradient id="i" x1="158" xlink:href="#b" gradientUnits="userSpaceOnUse" x2="155" gradientTransform="scale(1.46 .69)" y1="121" y2="232"/>
	<linearGradient id="j" gradientUnits="userSpaceOnUse" x2="371" x1="110" gradientTransform="scale(1.22 .82)">
		<stop stop-color="#fff" stop-opacity="0" offset="0"/>
		<stop stop-color="#5f0e00" stop-opacity=".4" offset="1"/>
	</linearGradient>
	<linearGradient id="c">
		<stop stop-color="#fff" stop-opacity=".3" offset="0"/>
		<stop stop-color="#fff" stop-opacity="0" offset="1"/>
	</linearGradient>
	<linearGradient id="k" x1="465" xlink:href="#b" gradientUnits="userSpaceOnUse" x2="463" gradientTransform="scale(.74 1.34)" y1="248" y2="406"/>
	<radialGradient id="d" cx="180" xlink:href="#c" gradientUnits="userSpaceOnUse" cy="198" r="102" gradientTransform="scale(.79 1.26)"/>
	<radialGradient id="f" xlink:href="#a" gradientUnits="userSpaceOnUse" cy="261" cx="365" gradientTransform="scale(.82 1.22)" r="67"/>
	<radialGradient id="h" xlink:href="#a" gradientUnits="userSpaceOnUse" cy="346" cx="99" gradientTransform="scale(1.06 .95)" r="46"/>
	<radialGradient id="e" cx="361" xlink:href="#c" gradientUnits="userSpaceOnUse" cy="168" r="46"/>
</defs>
<g stroke="#000" stroke-width="4">
	<path d="m143 39v240"/>
	<path d="m2 119h518"/>
	<path d="m2 209h518"/>
</g>
<g id="g" transform="translate(-7 -13.3)">
	<g transform="matrix(.15 0 0 .15 151 144)">
		<g fill-rule="evenodd">
			<path stroke-linejoin="round" d="m199 82s94-19 111-16.6c70 6.7 120 63 140 134 16.6 117-74 224-81 240-9.5 14.9-76 26.6-94 39-11.6 9.2-89-1.2-108-13.3-199-178-118-344-48-366 43.8-15 80-17.5 80-17.5z" stroke="#000" stroke-width="10" fill="#df3511"/>
			<g stroke-width="1.3">
				<path fill="url(#d)" d="m169 143c-87-91-133 135-90 212 57 76 234-46.9 90-212z" fill-opacity=".8"/>
				<path d="m395 132c-22-28.7-102-4.1-71 60 19 31 125 38 71-60z" fill="url(#e)"/>
				<g fill-opacity=".8">
					<path d="m275 471c35.6-69 47-142 63.7-152 10.8 6.7 5.8 85 20.7 119-12.4 9.1-63.7 24-84 33z" fill="url(#k)"/>
					<path d="m197 128s-20.7-11.6-19-18.3c14 5 22.3 12.5 27.3 9.2 4.9-3.3 4.9 9.1 9.1-6.7 4.1-15.8 15.7-33 14-15.8-1.6 20.8 6.7 25 24 9.2 17.4-15.8 24-11.7 19 9.1-24.8 27.5-80 19-74 13.3z" fill="url(#i)"/>
				</g>
			</g>
		</g>
		<g stroke-linejoin="round" stroke="#000" stroke-width="10">
			<path d="m164 120c75 26.6 62.9 13.3 144-8.3" fill="none"/>
			<path fill="#4a2a00" d="m225 132c-3.3-19.9 35-111 46.7-113 7.5-0.8 40.6 16 21 26.7 0 8.8-7.4-1.7-12.4 1.7-11.6 12.5-31 51-37.6 82l-17.8 2.3z" fill-rule="evenodd"/>
		</g>
	</g>
	<g transform="matrix(.15 0 0 .15 155 223)">
		<g stroke-linejoin="round" stroke="#000" stroke-width="10">
			<g fill-rule="evenodd" fill="#ca0000">
				<path d="m322 241c-16-13.7-113-12-91 105 23.7 102 152 79.9 179 37 49.9-80-22-167-88-142z"/>
				<path d="m172 265c-16-13.7-140-12-119 105 23.8 102 142 92 176 54.8 70.8-77-1.6-172-57.7-160z"/>
			</g>
			<g fill="none">
				<path d="m295 253c-3.2 18.3 38.5 28.9 71 7.6"/>
				<path d="m144 282c-3.2 18.3 19.3 50 51 28.9"/>
			</g>
		</g>
		<g fill-rule="evenodd">
			<g stroke-width="1.3" fill-opacity=".3">
				<path d="m131 294c-59-41-101 60.8-55 73 60.9 21.3 107-33.4 55-73z" fill="url(#h)"/>
				<path d="m325 247c-83-54.7-103 132-56 145 87 44 109-105 56-144z" fill="url(#f)"/>
			</g>
			<path stroke-linejoin="round" d="m375 25c-5.4 1.3-21.3 22-29 35-98 50-134 108-158 159-13 26.7-19.3 53-22.4 69-1.6 7.8-2.3 13.8-2.7 17.4 1 10.9 15.6 8.7 14.9 2.4 4.2-8.5 1.1-10.4 2.6-17.9 2.9-15 8.9-37 21.5-62.9 22-45 60-101 141-148l2.9 3.3c-30 42-47 105-27 182 4 2.5 18.5 1.7 19.7-2.5-20.5-87 3-154 36.7-190 7.5-4.7 22.5-17.7 26-18 4.1-7.3-12-26.6-26-30z" stroke="#000" stroke-width="10" fill="#552400"/>
		</g>
	</g>
	<g transform="matrix(.2 0 0 .2 152 42)" fill-rule="evenodd">
		<path stroke-linejoin="round" d="m389 94c-18.8-17.5 31-30 37-23.8 10 5-8.7 8.8-7.4 17.5 1.2 8.8 0 55 10 58s22.4 11.2 22.4 23.8c31 77-91 290-381 184-5-3.7-32.5-35-37.5-42.5-2.5-8.8-6.3-30 8.8-37.5 129-33.7 278 32.5 345-119 11.3-26.3 2.6-60 2.6-60z" stroke="#000" stroke-width="10" fill="#ffe200"/>
		<g stroke-width="1.3">
			<path d="m43.8 290l2.5-12.5c93-35 264 38.7 346-120-41 113-114 181-349 133z" fill="url(#l)"/>
			<g fill="#442400">
				<path d="m386 89c2.9-17.6 29-18 36.4-19 12 1.6-15.5 21.5-36.4 19z"/>
				<path d="m32.5 305c-0.9-18.3-1.9-24.4 8.7-30.4 4.6 6.9 3.8 28-8.7 30.4z"/>
			</g>
			<path fill="url(#j)" d="m134 366c219 55 293-83 306-116 22.5-40 8.8-85 8.8-85-1.3 135-143 244-315 201z" fill-opacity=".8"/>
		</g>
	</g>
</g>
<use xlink:href="#g" x="272"/>
<use xlink:href="#g" x="181"/>
<use xlink:href="#g" x="91"/>
<g font-size="37" font-family="sans-serif">
	<text y="30" x="216">Fruit Collected</text>
	<text y="98" x="1">Banana</text>
	<text y="176" x="2">Apple</text>
	<text y="252" x="2">Cherry</text>
</g>
</svg>